<svg id="Layer_6" data-name="Layer 6" xmlns="http://www.w3.org/2000/svg" viewBox="0 0 49.45 49.45"><title>experience</title><path d="M25,296.84a24.72,24.72,0,1,1,24.73-24.73A24.75,24.75,0,0,1,25,296.84Zm0-49a24.29,24.29,0,1,0,24.29,24.29A24.32,24.32,0,0,0,25,247.82Z" transform="translate(-0.26 -247.39)" style="fill:#4070b6"/><circle cx="24.72" cy="24.72" r="22.16" style="fill:#4070b6"/><path d="M31.78,266a6.8,6.8,0,0,0-13.59,0h-5.7v18.64h25V266ZM25,261.47A4.92,4.92,0,0,1,29.87,266H20.1A4.91,4.91,0,0,1,25,261.47Z" transform="translate(-0.26 -247.39)" style="fill:#fff"/></svg>