<svg data-name="Layer 1" xmlns="http://www.w3.org/2000/svg" viewBox="0 0 49.5 340.2"><path d="M24.7 340.2a24.7 24.7 0 1 1 24.7-24.7 24.8 24.8 0 0 1-24.7 24.7zm0-49A24.3 24.3 0 1 0 49 315.5a24.3 24.3 0 0 0-24.3-24.3z" fill="#4070b6"/><circle cx="24.7" cy="315.5" r="22.2" fill="#4070b6"/><path d="M33.2 305.7a1.8 1.8 0 0 1 1.8 1.8v9.2a1.8 1.8 0 0 1-1.8 1.8H16.1a1.8 1.8 0 0 1-1.8-1.8v-9.2a1.8 1.8 0 0 1 1.8-1.8h17.1m0-1.8H16.1a3.5 3.5 0 0 0-3.5 3.5v9.2a3.5 3.5 0 0 0 3.5 3.5h17.1a3.5 3.5 0 0 0 3.5-3.5v-9.2a3.5 3.5 0 0 0-3.5-3.5zm6.3 23.2H10l2.6-4.7h24.2l2.7 4.7z" fill="#fff"/><path d="M24.7 165.7A24.7 24.7 0 1 1 49.4 141a24.8 24.8 0 0 1-24.7 24.7zm0-49A24.3 24.3 0 1 0 49 141a24.3 24.3 0 0 0-24.3-24.3z" fill="#4070b6"/><circle cx="24.7" cy="141" r="22.2" fill="#4070b6"/><path d="M35 136.8a10.4 10.4 0 1 0-15.6 8.9v.4a3.9 3.9 0 0 0 3.9 3.9h2.6a3.9 3.9 0 0 0 3.9-3.9v-.4a10.3 10.3 0 0 0 5.2-8.9zm-7.1 14.7h-6.4a2.05 2.05 0 0 0 0 4.1h6.3a2.05 2.05 0 1 0 0-4.1z" fill="#fff"/><path d="M24.7 107.6a24.7 24.7 0 1 1 24.7-24.8 24.8 24.8 0 0 1-24.7 24.8zm0-49A24.3 24.3 0 1 0 49 82.8a24.3 24.3 0 0 0-24.3-24.3z" fill="#4070b6"/><circle cx="24.7" cy="82.9" r="22.2" fill="#4070b6"/><path d="M38.3 90.5a1.3 1.3 0 0 1-.4 1.1l-3.7 3.7-.7.5-.8.3h-.5l-1.7-.2a13.1 13.1 0 0 1-2.9-.9 24.7 24.7 0 0 1-3.9-2.2 29.3 29.3 0 0 1-4.7-3.9 30.8 30.8 0 0 1-3.4-3.7 26.3 26.3 0 0 1-2.1-3.3 17.4 17.4 0 0 1-1.1-2.7 14.5 14.5 0 0 1-.5-2.1 6.9 6.9 0 0 1-.1-1.4v-.5a2.7 2.7 0 0 1 .3-.8l.5-.7 3.7-3.7a1.2 1.2 0 0 1 .9-.4l.6.2.5.5 3 5.7a1.4 1.4 0 0 1 .1 1 1.8 1.8 0 0 1-.5.9l-1.4 1.4v.4a5 5 0 0 0 .5 1.4l1 1.6a17.9 17.9 0 0 0 2 2.2 18.3 18.3 0 0 0 2.2 2l1.6 1.1 1 .4h.7l1.6-1.6a1.7 1.7 0 0 1 1.2-.4l.8.2 5.4 3.2a1.4 1.4 0 0 1 .8.7z" fill="#fff"/><path d="M24.7 49.4a24.7 24.7 0 1 1 24.7-24.7 24.8 24.8 0 0 1-24.7 24.7zm0-49A24.3 24.3 0 1 0 49 24.7 24.3 24.3 0 0 0 24.7.4z" fill="#4070b6"/><circle cx="24.7" cy="24.7" r="22.2" fill="#4070b6"/><path d="M28.6 24.9a6 6 0 1 0-7.1 0 10.9 10.9 0 0 0-7.4 10.3h21.8a10.9 10.9 0 0 0-7.3-10.3z" fill="#fff"/><path d="M24.7 282a24.7 24.7 0 1 1 24.7-24.7A24.8 24.8 0 0 1 24.7 282zm0-49A24.3 24.3 0 1 0 49 257.3 24.3 24.3 0 0 0 24.7 233z" fill="#4070b6"/><circle cx="24.7" cy="257.4" r="22.2" fill="#4070b6"/><path d="M31.5 251.2a6.8 6.8 0 0 0-13.6 0h-5.7v18.6h25v-18.6zm-6.8-4.5a4.9 4.9 0 0 1 4.9 4.6h-9.8a4.9 4.9 0 0 1 4.9-4.6z" fill="#fff"/><path d="M24.7 223.9a24.7 24.7 0 1 1 24.7-24.7 24.8 24.8 0 0 1-24.7 24.7zm0-49A24.3 24.3 0 1 0 49 199.2a24.3 24.3 0 0 0-24.3-24.3z" fill="#4070b6"/><circle cx="24.7" cy="199.2" r="22.2" fill="#4070b6"/><path fill="#fff" d="M24.7 183.6l3.9 11.9h12.5L31 202.9l3.9 11.9-10.2-7.4-10.1 7.4 3.9-11.9-10.2-7.4h12.6l3.8-11.9z"/></svg>