<svg id="Layer_7" data-name="Layer 7" xmlns="http://www.w3.org/2000/svg" viewBox="0 0 49.45 49.45"><title>software</title><path d="M25,338a24.72,24.72,0,1,1,24.73-24.72A24.75,24.75,0,0,1,25,338Zm0-49a24.29,24.29,0,1,0,24.29,24.29A24.32,24.32,0,0,0,25,289Z" transform="translate(-0.26 -288.55)" style="fill:#4070b6"/><circle cx="24.72" cy="24.73" r="22.16" style="fill:#4070b6"/><path d="M33.53,303.49a1.77,1.77,0,0,1,1.77,1.77v9.17a1.77,1.77,0,0,1-1.77,1.77H16.44a1.77,1.77,0,0,1-1.77-1.77v-9.17a1.77,1.77,0,0,1,1.77-1.77H33.53m0-1.77H16.44a3.54,3.54,0,0,0-3.54,3.54v9.17A3.54,3.54,0,0,0,16.44,318H33.53a3.54,3.54,0,0,0,3.54-3.54v-9.17a3.54,3.54,0,0,0-3.54-3.54Z" transform="translate(-0.26 -288.55)" style="fill:#fff"/><polygon points="39.45 36.29 10 36.29 12.64 31.64 36.81 31.64 39.45 36.29" style="fill:#fff"/></svg>