<svg id="Layer_3" data-name="Layer 3" xmlns="http://www.w3.org/2000/svg" viewBox="0 0 49.45 49.45"><title>contact</title><path d="M25,52.18A24.73,24.73,0,1,1,49.71,27.46,24.75,24.75,0,0,1,25,52.18Zm0-49A24.29,24.29,0,1,0,49.28,27.46,24.32,24.32,0,0,0,25,3.17Z" transform="translate(-0.26 -2.73)" style="fill:#4070b6"/><circle cx="24.72" cy="24.73" r="22.16" style="fill:#4070b6"/><path d="M38.56,35.12a1.28,1.28,0,0,1-.39,1.12L34.43,40a2.15,2.15,0,0,1-.66.48,2.74,2.74,0,0,1-.8.25l-.17,0h-.37a12.84,12.84,0,0,1-1.73-.18,13.06,13.06,0,0,1-2.92-.9,24.7,24.7,0,0,1-3.92-2.15,29.33,29.33,0,0,1-4.66-3.93,30.79,30.79,0,0,1-3.26-3.71,26.28,26.28,0,0,1-2.08-3.27,17.36,17.36,0,0,1-1.18-2.72,14.52,14.52,0,0,1-.53-2.11A6.88,6.88,0,0,1,12,20.35c0-.34,0-.53,0-.56a2.68,2.68,0,0,1,.25-.8,2.06,2.06,0,0,1,.48-.66l3.74-3.74a1.24,1.24,0,0,1,.9-.39,1,1,0,0,1,.65.21,1.92,1.92,0,0,1,.48.52l3,5.7a1.36,1.36,0,0,1,.14,1,1.75,1.75,0,0,1-.48.9l-1.38,1.38a.45.45,0,0,0-.1.19.63.63,0,0,0,0,.21,5,5,0,0,0,.5,1.35,12.31,12.31,0,0,0,1,1.64,17.92,17.92,0,0,0,2,2.23,18.32,18.32,0,0,0,2.25,2,12.75,12.75,0,0,0,1.64,1.06,4.34,4.34,0,0,0,1,.41l.35.07.18,0a.5.5,0,0,0,.18-.1l1.6-1.63a1.73,1.73,0,0,1,1.18-.45,1.45,1.45,0,0,1,.76.17h0l5.42,3.2A1.41,1.41,0,0,1,38.56,35.12Z" transform="translate(-0.26 -2.73)" style="fill:#fff"/></svg>