<svg id="Layer_2" data-name="Layer 2" xmlns="http://www.w3.org/2000/svg" viewBox="0 0 49.45 49.45"><title>profile</title><path d="M25,52.2A24.72,24.72,0,1,1,49.71,27.47,24.75,24.75,0,0,1,25,52.2Zm0-49A24.29,24.29,0,1,0,49.28,27.47,24.32,24.32,0,0,0,25,3.18Z" transform="translate(-0.26 -2.75)" style="fill:#4070b6"/><circle cx="24.72" cy="24.73" r="22.16" style="fill:#4070b6"/><path d="M28.87,27.7a6,6,0,1,0-7.14,0A10.91,10.91,0,0,0,14.39,38H36.22A10.91,10.91,0,0,0,28.87,27.7Z" transform="translate(-0.26 -2.75)" style="fill:#fff"/></svg>