<svg id="Layer_4" data-name="Layer 4" xmlns="http://www.w3.org/2000/svg" viewBox="0 0 49.45 49.45"><title>skills</title><path d="M25,188.52a24.72,24.72,0,1,1,24.72-24.73A24.75,24.75,0,0,1,25,188.52Zm0-49a24.29,24.29,0,1,0,24.29,24.29A24.32,24.32,0,0,0,25,139.5Z" transform="translate(-0.26 -139.07)" style="fill:#4070b6"/><circle cx="24.72" cy="24.72" r="22.16" style="fill:#4070b6"/><path d="M35.34,159.61a10.35,10.35,0,1,0-15.57,8.9v.37a3.91,3.91,0,0,0,3.91,3.91h2.61a3.91,3.91,0,0,0,3.91-3.91v-.37A10.31,10.31,0,0,0,35.34,159.61Z" transform="translate(-0.26 -139.07)" style="fill:#fff"/><path d="M28.15,174.26H21.82a2,2,0,0,0,0,4.09h6.34a2,2,0,1,0,0-4.09Z" transform="translate(-0.26 -139.07)" style="fill:#fff"/></svg>